<svg xmlns="http://www.w3.org/2000/svg" width="13" height="11" viewBox="0 0 13 11" fill="none">
    <path d="M7.94727 10.9738C7.60872 11.0393 7.30404 10.982 7.0332 10.802C6.76237 10.6219 6.5931 10.3682 6.52539 10.0409L6.47461 9.77087C6.28841 8.93617 5.84831 8.24877 5.1543 7.70867L4.97656 7.56137C4.38411 7.08674 4.07943 6.473 4.0625 5.72013V2.99509C4.07943 2.16039 4.44336 1.50573 5.1543 1.0311L6.11914 0.392799C6.52539 0.130933 6.98242 0 7.49023 0H9.95312C10.2917 0.0163666 10.5794 0.130933 10.8164 0.343699C11.0365 0.572831 11.1549 0.851064 11.1719 1.1784C11.1719 1.26023 11.1634 1.34206 11.1465 1.4239C11.6712 1.62029 11.9505 1.99673 11.9844 2.55319C11.9844 2.78232 11.9251 2.98691 11.8066 3.16694C12.0944 3.21604 12.3314 3.34697 12.5176 3.55974C12.7038 3.7725 12.7969 4.02619 12.7969 4.32079C12.7799 4.69722 12.6276 5 12.3398 5.22913C12.763 5.45827 12.9831 5.81015 13 6.28478C12.9831 6.61211 12.8646 6.89034 12.6445 7.11948C12.4076 7.33224 12.1198 7.44681 11.7812 7.46318H8.125C8.48047 8.03601 8.72591 8.64975 8.86133 9.30442L8.91211 9.59902C8.97982 9.92635 8.92057 10.2209 8.73438 10.4828C8.54818 10.7447 8.28581 10.9083 7.94727 10.9738ZM0.8125 8.64157C0.575521 8.64157 0.380859 8.56792 0.228516 8.42062C0.0761719 8.27332 0 8.08511 0 7.85597V2.35679C0 2.12766 0.0761719 1.93944 0.228516 1.79214C0.380859 1.64484 0.575521 1.57119 0.8125 1.57119H2.4375C2.67448 1.57119 2.86914 1.64484 3.02148 1.79214C3.17383 1.93944 3.25 2.12766 3.25 2.35679V7.85597C3.25 8.08511 3.17383 8.27332 3.02148 8.42062C2.86914 8.56792 2.67448 8.64157 2.4375 8.64157H0.8125Z" fill="white" fill-opacity="0.95"/>
</svg>
