<svg xmlns="http://www.w3.org/2000/svg" width="13" height="11" viewBox="0 0 13 11" fill="none">
    <path d="M8.22656 10.9286C7.71875 11.0595 7.25326 11.0104 6.83008 10.7812C6.4069 10.552 6.11914 10.2 5.9668 9.72519L5.81445 9.23402C5.71289 8.90657 5.55208 8.62005 5.33203 8.37447L4.01172 6.97463C3.79167 6.6963 3.80859 6.42616 4.0625 6.1642C4.36719 5.93498 4.65495 5.94317 4.92578 6.18876L6.2207 7.58859C6.57617 7.96516 6.83008 8.40721 6.98242 8.91475L7.13477 9.40593C7.27018 9.73337 7.52409 9.86435 7.89648 9.79886C8.23503 9.66788 8.37044 9.4223 8.30273 9.06211L8.15039 8.57094C8.01497 8.07976 7.79492 7.62952 7.49023 7.22021C7.35482 7.02375 7.33789 6.81909 7.43945 6.60625C7.55794 6.40978 7.73568 6.30336 7.97266 6.28699H11.375C11.6289 6.27062 11.7643 6.13964 11.7812 5.89405C11.7643 5.71396 11.6797 5.59116 11.5273 5.52567C11.3242 5.44381 11.1973 5.30465 11.1465 5.10818C11.0957 4.91171 11.138 4.7398 11.2734 4.59245C11.3411 4.51059 11.375 4.42054 11.375 4.32231C11.3581 4.10946 11.248 3.97849 11.0449 3.92937C10.8249 3.88025 10.6725 3.75746 10.5879 3.56099C10.5202 3.34815 10.554 3.15987 10.6895 2.99614C10.7402 2.93065 10.7656 2.84879 10.7656 2.75056C10.7487 2.57046 10.6641 2.44767 10.5117 2.38218C10.1901 2.23483 10.0632 1.99743 10.1309 1.66998C10.1478 1.63724 10.1562 1.60449 10.1562 1.57175C10.1393 1.32616 10.0039 1.19518 9.75 1.17881H7.28711C6.94857 1.17881 6.64388 1.26886 6.37305 1.44895L4.79883 2.45586C4.47721 2.61958 4.19792 2.56228 3.96094 2.28395C3.77474 1.97287 3.83398 1.70273 4.13867 1.47351L5.6875 0.466613C6.17839 0.155538 6.71159 0 7.28711 0H9.75C10.207 0.0163724 10.5879 0.163724 10.8926 0.442054C11.1973 0.736757 11.3581 1.09695 11.375 1.52263C11.7643 1.83371 11.9674 2.24301 11.9844 2.75056C11.9844 2.86516 11.9759 2.97159 11.959 3.06982C12.3652 3.38089 12.5768 3.79839 12.5938 4.32231C12.5938 4.48603 12.5684 4.64157 12.5176 4.78892C12.8223 5.08362 12.9831 5.452 13 5.89405C12.9831 6.33611 12.8223 6.70448 12.5176 6.99919C12.2129 7.29389 11.832 7.44943 11.375 7.4658H9.03906C9.15755 7.72776 9.25911 7.98972 9.34375 8.25167L9.4707 8.74285C9.60612 9.23402 9.55534 9.68426 9.31836 10.0936C9.08138 10.5029 8.71745 10.7812 8.22656 10.9286ZM0.8125 8.64461C0.575521 8.64461 0.380859 8.57094 0.228516 8.42358C0.0761719 8.27623 0 8.08795 0 7.85874V2.35762C0 2.12841 0.0761719 1.94013 0.228516 1.79277C0.380859 1.64542 0.575521 1.57175 0.8125 1.57175H2.4375C2.67448 1.57175 2.86914 1.64542 3.02148 1.79277C3.17383 1.94013 3.25 2.12841 3.25 2.35762V7.85874C3.25 8.08795 3.17383 8.27623 3.02148 8.42358C2.86914 8.57094 2.67448 8.64461 2.4375 8.64461H0.8125Z" fill="#040405"/>
</svg>
