<svg xmlns="http://www.w3.org/2000/svg" width="13" height="11" viewBox="0 0 13 11" fill="none">
    <path d="M5.73828 10.6981L5.66211 10.6478L1.21875 6.54689C0.423177 5.79212 0.0169271 4.86963 0 3.77942V3.70394C0.0169271 2.79822 0.304688 2.00991 0.863281 1.33901C1.40495 0.684879 2.12435 0.265565 3.02148 0.0810673C4.07096 -0.103431 5.01888 0.0978399 5.86523 0.684879C6.10221 0.835832 6.3138 1.02033 6.5 1.23837C6.60156 1.12097 6.72005 1.01194 6.85547 0.911309C6.9401 0.827446 7.0332 0.75197 7.13477 0.684879C7.98112 0.0978399 8.92904 -0.111817 9.97852 0.0559085C10.8757 0.240407 11.5951 0.668107 12.1367 1.33901C12.6953 2.00991 12.9831 2.79822 13 3.70394V3.77942C12.9831 4.86963 12.5768 5.79212 11.7812 6.54689L7.33789 10.6478L7.26172 10.6981C7.04167 10.8994 6.78776 11 6.5 11C6.21224 11 5.95833 10.8994 5.73828 10.6981ZM6.06836 2.57179C6.06836 2.57179 6.0599 2.56341 6.04297 2.54663L5.58594 2.04346C5.28125 1.70801 4.92578 1.47319 4.51953 1.33901C4.11328 1.20483 3.6901 1.17967 3.25 1.26353C2.65755 1.38094 2.17513 1.66607 1.80273 2.11893C1.43034 2.55502 1.23568 3.08335 1.21875 3.70394V3.77942C1.23568 4.51741 1.51497 5.14638 2.05664 5.66633L6.5 9.76722L10.9434 5.66633C11.485 5.14638 11.7643 4.51741 11.7812 3.77942V3.70394C11.7643 3.08335 11.5697 2.55502 11.1973 2.11893C10.8249 1.66607 10.3424 1.38094 9.75 1.26353C9.3099 1.17967 8.88672 1.20483 8.48047 1.33901C8.07422 1.47319 7.71875 1.70801 7.41406 2.04346L6.95703 2.54663C6.95703 2.54663 6.94857 2.55502 6.93164 2.57179C6.81315 2.6892 6.66927 2.7479 6.5 2.7479C6.33073 2.7479 6.18685 2.6892 6.06836 2.57179Z" fill="#040405"/>
</svg>
