<svg xmlns="http://www.w3.org/2000/svg" width="13" height="11" viewBox="0 0 13 11" fill="none">
    <path d="M1.21875 6.47601C0.423177 5.73877 0.0169271 4.82559 0 3.73648V3.58568C0.0169271 2.68088 0.304688 1.91013 0.863281 1.27342C1.42188 0.619954 2.14128 0.209444 3.02148 0.0418888C3.61393 -0.0418888 4.18945 0 4.74805 0.167555C5.28971 0.33511 5.77214 0.628332 6.19531 1.04722L6.5 1.34882L6.80469 1.04722C7.22786 0.628332 7.71029 0.33511 8.25195 0.167555C8.81055 0 9.38607 -0.0418888 9.97852 0.0418888C10.8587 0.209444 11.5781 0.619954 12.1367 1.27342C12.6953 1.91013 12.9831 2.68088 13 3.58568V3.73648C12.9831 4.82559 12.5768 5.73877 11.7812 6.47601L7.21094 10.7235C7.00781 10.9078 6.77083 11 6.5 11C6.22917 11 5.99219 10.9078 5.78906 10.7235L1.21875 6.47601Z" fill="white" fill-opacity="0.95"/>
</svg>
